<svg xmlns="http://www.w3.org/2000/svg" width="0.88em" height="1em" viewBox="0 70.766 256 289.322"><path fill="#264DE4" d="M127.844 360.088L23.662 331.166L.445 70.766h255.11l-23.241 260.36z"/><path fill="#2965F1" d="m212.417 314.547l19.86-222.49H128V337.95z"/><path fill="#EBEBEB" d="m53.669 188.636l2.862 31.937H128v-31.937zm-5.752-64.641l2.903 31.937H128v-31.937zM128 271.58l-.14.037l-35.568-9.604l-2.274-25.471h-32.06l4.474 50.146l65.421 18.16l.147-.04z"/><path fill="#FFF" d="m202.127 188.636l5.765-64.641H127.89v31.937h45.002l-2.906 32.704H127.89v31.937h39.327l-3.708 41.42l-35.62 9.614v33.226l65.473-18.145l.48-5.396l7.506-84.08z"/></svg>
